<svg xmlns="http://www.w3.org/2000/svg" xmlns:xlink="http://www.w3.org/1999/xlink" data-name="Layer 2" width="369" height="361.70270292562145"><rect id="backgroundrect" width="100%" height="100%" x="0" y="0" fill="none" stroke="none" style="" class=""/>
  <defs>
    <style>
      .cls-1 {
        fill: none;
      }

      .cls-2 {
        clip-path: url(#clippath);
      }
    </style>
    <clipPath id="clippath">
      <path class="cls-1" d="m182.32,67.16c-62.03,0-112.32,50.29-112.32,112.32s50.29,112.32,112.32,112.32,112.32-50.29,112.32-112.32-50.29-112.32-112.32-112.32Zm74.54,112.92c.1,2.14-.11,4.28-.63,6.35l9.52,12.7c-3.71,16.89-12.58,32.2-25.4,43.81l-15.87-1.27c-3.37,2.49-6.99,4.61-10.79,6.35l-6.35,13.97c-16.55,5.09-34.25,5.09-50.79,0l-6.35-13.97c-3.81-1.74-7.43-3.86-10.79-6.35l-15.87,1.27c-12.81-11.61-21.69-26.92-25.4-43.81l9.52-12.7c-.53-2.07-.74-4.21-.63-6.35-.1-2.14.11-4.28.63-6.35l-9.52-12.7c3.71-16.89,12.58-32.2,25.4-43.81l15.87,1.27c3.37-2.49,6.99-4.61,10.79-6.35l6.35-13.97c16.55-5.09,34.25-5.09,50.79,0l6.35,13.97c3.81,1.74,7.43,3.86,10.79,6.35l15.87-1.27c12.81,11.61,21.69,26.92,25.4,43.81l-9.52,12.7c.53,2.07.74,4.21.63,6.35Zm95.45-64.34l-18.59-7.6c-3.77-8.99-8.59-17.49-14.36-25.35l2.53-19.43C294.08,29.74,255.09,7.24,212.06,0l-16.05,11.83h-28.72L151.23,0c-43.03,7.24-82.02,29.74-109.83,63.36l2.53,19.43c-5.77,7.85-10.59,16.36-14.36,25.35l-18.59,7.6C3.86,136.12.15,157.53,0,179.11c.15,21.58,3.86,42.99,10.98,63.36l18.59,7.6c3.77,8.99,8.59,17.49,14.36,25.35l-2.53,19.43c27.81,33.63,66.8,56.12,109.83,63.36l16.05-11.83h28.72l16.05,11.83c43.03-7.24,82.02-29.74,109.83-63.36l-2.53-19.43c5.77-7.85,10.59-16.36,14.36-25.35l18.59-7.6c7.12-20.37,10.84-41.78,10.98-63.36-.15-21.58-3.86-42.99-10.98-63.36Zm-170.2,206.79c-78.89,0-142.84-63.95-142.84-142.84S103.21,36.85,182.1,36.85s142.84,63.95,142.84,142.84-63.95,142.84-142.84,142.84Z" id="svg_1"/>
    </clipPath>
  </defs>
  
<g class="currentLayer" style=""><title>Layer 1</title>
    
      
      
    
  <g class="cls-2" id="svg_3">
      </g></g></svg>
